<svg xmlns="http://www.w3.org/2000/svg" xmlns:xlink="http://www.w3.org/1999/xlink" width="500" zoomAndPan="magnify" viewBox="0 0 375 374.999991" height="500" preserveAspectRatio="xMidYMid meet" version="1.0"><defs><clipPath id="09fbde185c"><path d="M 31.363281 31.363281 L 343.472656 31.363281 L 343.472656 343.472656 L 31.363281 343.472656 Z M 31.363281 31.363281 " clip-rule="nonzero"/></clipPath><clipPath id="04dfcf780a"><path d="M 70.941406 76.71875 L 305.984375 76.71875 L 305.984375 298.921875 L 70.941406 298.921875 Z M 70.941406 76.71875 " clip-rule="nonzero"/></clipPath></defs><rect x="-37.5" width="450" fill="#ffffff" y="-37.499999" height="449.999989" fill-opacity="1"/><rect x="-37.5" width="450" fill="#ffffff" y="-37.499999" height="449.999989" fill-opacity="1"/><path fill="#b1ea37" d="M 362.960938 -8.433594 L 16.539062 -8.433594 C 2.839844 -8.433594 -8.25 2.652344 -8.25 16.355469 L -8.25 362.769531 C -8.25 376.472656 2.839844 387.558594 16.542969 387.558594 L 362.960938 387.558594 C 376.664062 387.558594 387.75 376.472656 387.75 362.769531 L 387.75 16.355469 C 387.75 2.648438 376.664062 -8.4375 362.960938 -8.4375 " fill-opacity="1" fill-rule="nonzero"/><g clip-path="url(#09fbde185c)"><path fill="#b1ea37" d="M 258.984375 31.425781 L 115.855469 31.425781 C 69.28125 31.425781 31.363281 69.28125 31.363281 115.914062 L 31.363281 258.925781 C 31.363281 305.496094 69.28125 343.414062 115.855469 343.414062 L 258.984375 343.414062 C 305.558594 343.414062 343.472656 305.496094 343.472656 258.925781 L 343.472656 115.914062 C 343.472656 69.28125 305.558594 31.425781 258.984375 31.425781 Z M 258.984375 31.425781 " fill-opacity="1" fill-rule="nonzero"/></g><g clip-path="url(#04dfcf780a)"><path fill="#000000" d="M 255.269531 -11.871094 C 247.613281 -11.871094 239.953125 -10.386719 232.644531 -7.40625 L 11.292969 82.707031 C -19.390625 95.199219 -34.199219 130.351562 -21.726562 161.074219 L 56.269531 353.199219 C 62.3125 368.078125 73.78125 379.71875 88.5625 385.964844 C 103.339844 392.207031 119.664062 392.316406 134.527344 386.261719 L 355.878906 296.148438 C 370.742188 290.097656 382.359375 278.613281 388.597656 263.8125 C 394.835938 249.011719 394.941406 232.660156 388.894531 217.78125 L 310.902344 25.65625 C 304.859375 10.773438 293.390625 -0.863281 278.613281 -7.109375 C 271.097656 -10.285156 263.183594 -11.871094 255.269531 -11.871094 Z M 111.898438 393.496094 C 103.621094 393.496094 95.347656 391.835938 87.484375 388.515625 C 72.023438 381.980469 60.027344 369.808594 53.707031 354.242188 L -24.289062 162.117188 C -37.339844 129.980469 -21.839844 93.203125 10.25 80.140625 L 231.601562 -9.976562 C 247.148438 -16.304688 264.226562 -16.191406 279.6875 -9.660156 C 295.148438 -3.125 307.148438 9.042969 313.464844 24.613281 L 391.460938 216.738281 C 397.78125 232.304688 397.667969 249.40625 391.144531 264.886719 C 384.621094 280.375 372.46875 292.386719 356.921875 298.714844 L 356.398438 297.429688 L 356.921875 298.714844 L 135.570312 388.832031 C 127.925781 391.941406 119.910156 393.496094 111.898438 393.496094 " fill-opacity="1" fill-rule="nonzero"/><path fill="#b1ea37" d="M 303.058594 354.652344 L 64.113281 354.652344 C 30.175781 354.652344 2.671875 327.105469 2.671875 293.121094 L 2.671875 85.730469 C 2.671875 51.746094 30.175781 24.199219 64.113281 24.199219 L 303.058594 24.199219 C 336.992188 24.199219 364.5 51.746094 364.5 85.730469 L 364.5 293.121094 C 364.5 327.105469 336.992188 354.652344 303.058594 354.652344 " fill-opacity="1" fill-rule="nonzero"/><path fill="#000000" d="M 282.1875 3.121094 C 278.324219 3.121094 274.429688 3.488281 270.554688 4.242188 L 33.925781 50.082031 C 1.121094 56.4375 -20.398438 88.332031 -14.058594 121.183594 L 25.621094 326.5625 C 31.21875 355.535156 56.660156 375.71875 85.089844 375.722656 C 88.894531 375.722656 92.746094 375.363281 96.617188 374.613281 L 333.246094 328.773438 C 349.136719 325.695312 362.878906 316.601562 371.941406 303.171875 C 381.007812 289.746094 384.304688 273.582031 381.230469 257.671875 L 341.550781 52.289062 C 338.476562 36.378906 329.398438 22.617188 315.988281 13.539062 C 305.851562 6.679688 294.15625 3.121094 282.1875 3.121094 Z M 85.085938 378.492188 C 55.355469 378.492188 28.757812 357.386719 22.902344 327.089844 L -16.773438 121.707031 C -23.40625 87.355469 -0.898438 54.007812 33.398438 47.363281 L 270.023438 1.519531 C 286.648438 -1.699219 303.515625 1.753906 317.539062 11.242188 C 331.558594 20.734375 341.050781 35.125 344.265625 51.761719 L 383.945312 257.144531 C 387.160156 273.78125 383.707031 290.679688 374.234375 304.722656 C 364.757812 318.769531 350.386719 328.269531 333.773438 331.492188 L 333.507812 330.128906 L 333.773438 331.492188 L 97.144531 377.332031 C 93.097656 378.117188 89.0625 378.492188 85.085938 378.492188 " fill-opacity="1" fill-rule="nonzero"/></g><path fill="#000000" d="M 192.980469 255.632812 C 156.78125 247.511719 152.671875 217.6875 152.214844 211.785156 L 170.234375 206.945312 C 172.304688 206.390625 173.765625 204.730469 174.050781 202.609375 C 174.335938 200.488281 173.371094 198.496094 171.53125 197.414062 L 119.816406 166.957031 C 118.300781 166.066406 116.535156 165.824219 114.839844 166.28125 C 113.140625 166.734375 111.730469 167.832031 110.863281 169.359375 L 81.285156 221.625 C 80.230469 223.488281 80.390625 225.695312 81.695312 227.390625 C 83.003906 229.082031 85.09375 229.789062 87.164062 229.238281 L 105.25 224.382812 C 114.242188 253.835938 137.175781 273.429688 160.730469 273.425781 C 164.367188 273.425781 168.023438 272.957031 171.644531 271.984375 C 180.082031 269.722656 187.695312 264.761719 193.65625 257.644531 C 193.9375 257.3125 194.023438 256.859375 193.882812 256.445312 C 193.746094 256.039062 193.402344 255.730469 192.980469 255.632812 " fill-opacity="1" fill-rule="nonzero"/><path fill="#000000" d="M 260.742188 256.664062 C 284.957031 230.660156 288.511719 195.113281 268.710938 175.28125 C 262.960938 169.527344 255.816406 165.660156 247.46875 163.792969 C 247.015625 163.6875 246.546875 163.851562 246.25 164.207031 C 245.953125 164.558594 245.875 165.050781 246.054688 165.476562 C 257.890625 194.261719 231.417969 217.9375 226.292969 222.167969 L 213.167969 209.019531 C 211.660156 207.507812 209.488281 207.074219 207.507812 207.882812 C 205.53125 208.695312 204.292969 210.527344 204.273438 212.667969 L 203.796875 272.742188 C 203.785156 274.503906 204.460938 276.15625 205.703125 277.398438 C 206.929688 278.632812 208.558594 279.304688 210.292969 279.304688 C 210.3125 279.304688 210.332031 279.304688 210.351562 279.304688 L 270.34375 278.824219 C 272.476562 278.804688 274.308594 277.566406 275.117188 275.585938 C 275.925781 273.605469 275.492188 271.4375 273.984375 269.921875 L 260.742188 256.664062 " fill-opacity="1" fill-rule="nonzero"/><path fill="#000000" d="M 256.574219 144.449219 C 257.03125 142.746094 256.789062 140.980469 255.898438 139.464844 L 225.484375 87.679688 C 224.402344 85.832031 222.410156 84.867188 220.296875 85.148438 C 218.179688 85.441406 216.519531 86.902344 215.964844 88.96875 L 211.121094 107.082031 C 176.523438 99.085938 144.003906 113.773438 136.757812 140.859375 C 134.492188 149.320312 134.976562 158.410156 138.160156 167.152344 C 138.316406 167.589844 138.710938 167.898438 139.171875 167.957031 C 139.617188 168.011719 140.082031 167.8125 140.347656 167.429688 C 156.289062 144.183594 191.6875 152.457031 198.480469 154.308594 L 193.707031 172.160156 C 193.15625 174.226562 193.859375 176.324219 195.546875 177.636719 C 196.5 178.367188 197.605469 178.738281 198.722656 178.738281 C 199.601562 178.738281 200.488281 178.511719 201.304688 178.046875 L 253.496094 148.425781 C 255.027344 147.558594 256.121094 146.148438 256.574219 144.449219 " fill-opacity="1" fill-rule="nonzero"/></svg>